<?xml version="1.0" encoding="UTF-8"?>
<svg width="31.88" height="32" xmlns="http://www.w3.org/2000/svg" viewBox="0 0 70.04 70.04">
  <g>
    <g>
      <circle cx="35.02" cy="35.02" r="35.02" style="fill: #fff;"/>
      <path d="m32.35,41.87c-3.1,0-5.95-.62-8.55-1.88-2.6-1.25-4.66-3.07-6.19-5.47-1.53-2.4-2.29-5.3-2.29-8.7s.75-6.24,2.25-8.66c1.5-2.42,3.54-4.3,6.11-5.62,2.57-1.32,5.46-1.99,8.66-1.99.95,0,1.85.06,2.7.19.85.12,1.67.31,2.48.56h16.35v6.75c-2.25,0-4.51-.38-6.79-1.12-2.28-.75-4.26-1.55-5.96-2.4l-.23-.38c1.7.9,3.17,1.99,4.42,3.26,1.25,1.27,2.21,2.7,2.89,4.27.67,1.58,1.01,3.34,1.01,5.29,0,3.3-.74,6.15-2.21,8.55-1.48,2.4-3.5,4.23-6.07,5.47-2.58,1.25-5.44,1.88-8.59,1.88Zm11.48,21v-1.72c0-2.55-.7-4.38-2.1-5.47-1.4-1.1-3.45-1.65-6.15-1.65h-8.77c-1.85,0-3.43-.15-4.73-.45-1.3-.3-2.38-.74-3.23-1.31-.85-.58-1.48-1.27-1.88-2.1-.4-.83-.6-1.74-.6-2.74,0-1.95.6-3.42,1.8-4.43,1.2-1,2.72-1.64,4.58-1.91,1.85-.27,3.72-.29,5.62-.04l3.97.82c-2.85.15-5.02.43-6.52.83-1.5.4-2.25,1.25-2.25,2.55,0,.75.3,1.35.9,1.8.6.45,1.45.67,2.55.67h9.15c2.85,0,5.39.36,7.61,1.09,2.22.72,3.98,1.95,5.25,3.68,1.28,1.72,1.91,4.09,1.91,7.09v3.3h-7.12Zm-11.48-27.07c1.8,0,3.44-.39,4.91-1.16,1.47-.77,2.66-1.9,3.56-3.38.9-1.47,1.35-3.26,1.35-5.36s-.44-3.99-1.31-5.51c-.88-1.52-2.06-2.67-3.56-3.45-1.5-.77-3.15-1.16-4.95-1.16s-3.46.39-4.99,1.16c-1.53.78-2.74,1.91-3.64,3.41-.9,1.5-1.35,3.35-1.35,5.55s.45,3.89,1.35,5.36c.9,1.48,2.1,2.6,3.6,3.38,1.5.78,3.17,1.16,5.02,1.16Z" style="fill: #5e4b9a;"/>
    </g>
  </g>
</svg>